<mxfile host="app.diagrams.net" modified="2021-01-28T23:23:22.383Z" agent="5.0 (Macintosh; Intel Mac OS X 10_15_6) AppleWebKit/537.36 (KHTML, like Gecko) Chrome/88.0.4324.96 Safari/537.36" etag="0FtoVXb_n-Ne7lqNr_KD" version="14.2.4" type="github">
  <diagram id="09VFsPM01v1Ixz4Gwr-q" name="Page-1">
    <mxGraphModel dx="670" dy="321" grid="1" gridSize="10" guides="1" tooltips="1" connect="1" arrows="1" fold="1" page="1" pageScale="1" pageWidth="827" pageHeight="1169" math="0" shadow="0">
      <root>
        <mxCell id="0" />
        <mxCell id="1" parent="0" />
      </root>
    </mxGraphModel>
  </diagram>
</mxfile>
